<?xml version="1.0" encoding="UTF-8" standalone="yes"?><svg xmlns="http://www.w3.org/2000/svg" xmlns:xlink="http://www.w3.org/1999/xlink" height="77pt" style="width:84px;height:77px;" version="1.1" viewBox="0 0 84 77" width="84pt"><defs><filter height="300%" id="f1" width="300%" x="-1" y="-1"><feGaussianBlur result="blurOut" stdDeviation="2.0"/><feColorMatrix in="blurOut" result="blurOut2" type="matrix" values="0 0 0 0 0 0 0 0 0 0 0 0 0 0 0 0 0 0 .4 0"/><feOffset dx="4.0" dy="4.0" in="blurOut2" result="blurOut3"/><feBlend in="SourceGraphic" in2="blurOut3" mode="normal"/></filter></defs><g><rect fill="#FEFECE" filter="url(#f1)" height="60.9551" style="stroke: #A80036; stroke-width: 1.5;" width="69" x="6" y="8"/><ellipse cx="26.85" cy="24" fill="#ADD1B2" rx="11" ry="11" style="stroke: #A80036; stroke-width: 1.0;"/><path d="M29.8231,29.6431 Q29.2421,29.9419 28.6029,30.0913 Q27.9638,30.2407 27.2582,30.2407 Q24.7514,30.2407 23.4315,28.5889 Q22.1117,26.937 22.1117,23.8159 Q22.1117,20.6865 23.4315,19.0347 Q24.7514,17.3828 27.2582,17.3828 Q27.9638,17.3828 28.6112,17.5322 Q29.2587,17.6816 29.8231,17.9805 L29.8231,20.7031 Q29.1923,20.1221 28.5988,19.8523 Q28.0053,19.5825 27.3744,19.5825 Q26.0297,19.5825 25.3449,20.6492 Q24.6601,21.7158 24.6601,23.8159 Q24.6601,25.9077 25.3449,26.9744 Q26.0297,28.041 27.3744,28.041 Q28.0053,28.041 28.5988,27.7712 Q29.1923,27.5015 29.8231,26.9204 Z "/><text fill="#000000" font-family="sans-serif" font-size="12" lengthAdjust="spacingAndGlyphs" textLength="24" x="42.15" y="28.5352">人類</text><line style="stroke: #A80036; stroke-width: 1.5;" x1="7" x2="74" y1="40" y2="40"/><text fill="#000000" font-family="sans-serif" font-size="11" lengthAdjust="spacingAndGlyphs" textLength="57" x="12" y="54.6348">String 血型</text><line style="stroke: #A80036; stroke-width: 1.5;" x1="7" x2="74" y1="60.9551" y2="60.9551"/></g></svg>