<?xml version="1.0" encoding="UTF-8" standalone="yes"?><svg xmlns="http://www.w3.org/2000/svg" xmlns:xlink="http://www.w3.org/1999/xlink" height="116pt" style="width:125px;height:116px;" version="1.1" viewBox="0 0 125 116" width="125pt"><defs><filter height="300%" id="f1" width="300%" x="-1" y="-1"><feGaussianBlur result="blurOut" stdDeviation="2.0"/><feColorMatrix in="blurOut" result="blurOut2" type="matrix" values="0 0 0 0 0 0 0 0 0 0 0 0 0 0 0 0 0 0 .4 0"/><feOffset dx="4.0" dy="4.0" in="blurOut2" result="blurOut3"/><feBlend in="SourceGraphic" in2="blurOut3" mode="normal"/></filter></defs><g><rect fill="#FEFECE" filter="url(#f1)" height="99.8203" style="stroke: #A80036; stroke-width: 1.5;" width="110" x="6" y="8"/><ellipse cx="38.55" cy="24" fill="#ADD1B2" rx="11" ry="11" style="stroke: #A80036; stroke-width: 1.0;"/><path d="M41.5231,29.6431 Q40.9421,29.9419 40.3029,30.0913 Q39.6638,30.2407 38.9582,30.2407 Q36.4514,30.2407 35.1315,28.5889 Q33.8117,26.937 33.8117,23.8159 Q33.8117,20.6865 35.1315,19.0347 Q36.4514,17.3828 38.9582,17.3828 Q39.6638,17.3828 40.3112,17.5322 Q40.9587,17.6816 41.5231,17.9805 L41.5231,20.7031 Q40.8923,20.1221 40.2988,19.8523 Q39.7053,19.5825 39.0744,19.5825 Q37.7297,19.5825 37.0449,20.6492 Q36.3601,21.7158 36.3601,23.8159 Q36.3601,25.9077 37.0449,26.9744 Q37.7297,28.041 39.0744,28.041 Q39.7053,28.041 40.2988,27.7712 Q40.8923,27.5015 41.5231,26.9204 Z "/><text fill="#000000" font-family="sans-serif" font-size="12" lengthAdjust="spacingAndGlyphs" textLength="39" x="56.45" y="28.5352">Person</text><line style="stroke: #A80036; stroke-width: 1.5;" x1="7" x2="115" y1="40" y2="40"/><text fill="#000000" font-family="sans-serif" font-size="11" lengthAdjust="spacingAndGlyphs" textLength="64" x="12" y="54.6348">String name</text><text fill="#000000" font-family="sans-serif" font-size="11" lengthAdjust="spacingAndGlyphs" textLength="73" x="12" y="67.5898">Date birthDay</text><line style="stroke: #A80036; stroke-width: 1.5;" x1="7" x2="115" y1="73.9102" y2="73.9102"/><text fill="#000000" font-family="sans-serif" font-size="11" lengthAdjust="spacingAndGlyphs" textLength="86" x="12" y="88.5449">public void eat()</text><text fill="#000000" font-family="sans-serif" font-size="11" lengthAdjust="spacingAndGlyphs" textLength="98" x="12" y="101.5">public void sleep()</text></g></svg>