<?xml version="1.0" encoding="UTF-8" standalone="yes"?><svg xmlns="http://www.w3.org/2000/svg" xmlns:xlink="http://www.w3.org/1999/xlink" height="90pt" style="width:100px;height:90px;" version="1.1" viewBox="0 0 100 90" width="100pt"><defs><filter height="300%" id="f1" width="300%" x="-1" y="-1"><feGaussianBlur result="blurOut" stdDeviation="2.0"/><feColorMatrix in="blurOut" result="blurOut2" type="matrix" values="0 0 0 0 0 0 0 0 0 0 0 0 0 0 0 0 0 0 .4 0"/><feOffset dx="4.0" dy="4.0" in="blurOut2" result="blurOut3"/><feBlend in="SourceGraphic" in2="blurOut3" mode="normal"/></filter></defs><g><rect fill="#FEFECE" filter="url(#f1)" height="73.9102" style="stroke: #A80036; stroke-width: 1.5;" width="85" x="6" y="8"/><ellipse cx="27.3" cy="24" fill="#ADD1B2" rx="11" ry="11" style="stroke: #A80036; stroke-width: 1.0;"/><path d="M30.2731,29.6431 Q29.6921,29.9419 29.0529,30.0913 Q28.4138,30.2407 27.7082,30.2407 Q25.2014,30.2407 23.8815,28.5889 Q22.5617,26.937 22.5617,23.8159 Q22.5617,20.6865 23.8815,19.0347 Q25.2014,17.3828 27.7082,17.3828 Q28.4138,17.3828 29.0612,17.5322 Q29.7087,17.6816 30.2731,17.9805 L30.2731,20.7031 Q29.6423,20.1221 29.0488,19.8523 Q28.4553,19.5825 27.8244,19.5825 Q26.4797,19.5825 25.7949,20.6492 Q25.1101,21.7158 25.1101,23.8159 Q25.1101,25.9077 25.7949,26.9744 Q26.4797,28.041 27.8244,28.041 Q28.4553,28.041 29.0488,27.7712 Q29.6423,27.5015 30.2731,26.9204 Z "/><text fill="#000000" font-family="sans-serif" font-size="12" lengthAdjust="spacingAndGlyphs" textLength="39" x="42.7" y="28.5352">Person</text><line style="stroke: #A80036; stroke-width: 1.5;" x1="7" x2="90" y1="40" y2="40"/><text fill="#000000" font-family="sans-serif" font-size="11" lengthAdjust="spacingAndGlyphs" textLength="64" x="12" y="54.6348">String name</text><text fill="#000000" font-family="sans-serif" font-size="11" lengthAdjust="spacingAndGlyphs" textLength="73" x="12" y="67.5898">Date birthDay</text><line style="stroke: #A80036; stroke-width: 1.5;" x1="7" x2="90" y1="73.9102" y2="73.9102"/></g></svg>