<?xml version="1.0" encoding="UTF-8" standalone="yes"?><svg xmlns="http://www.w3.org/2000/svg" xmlns:xlink="http://www.w3.org/1999/xlink" height="77pt" style="width:117px;height:77px;" version="1.1" viewBox="0 0 117 77" width="117pt"><defs><filter height="300%" id="f1" width="300%" x="-1" y="-1"><feGaussianBlur result="blurOut" stdDeviation="2.0"/><feColorMatrix in="blurOut" result="blurOut2" type="matrix" values="0 0 0 0 0 0 0 0 0 0 0 0 0 0 0 0 0 0 .4 0"/><feOffset dx="4.0" dy="4.0" in="blurOut2" result="blurOut3"/><feBlend in="SourceGraphic" in2="blurOut3" mode="normal"/></filter></defs><g><rect fill="#FEFECE" filter="url(#f1)" height="60.9551" style="stroke: #A80036; stroke-width: 1.5;" width="102" x="6" y="8"/><ellipse cx="41.7" cy="24" fill="#ADD1B2" rx="11" ry="11" style="stroke: #A80036; stroke-width: 1.0;"/><path d="M44.6731,29.6431 Q44.0921,29.9419 43.4529,30.0913 Q42.8138,30.2407 42.1082,30.2407 Q39.6014,30.2407 38.2815,28.5889 Q36.9617,26.937 36.9617,23.8159 Q36.9617,20.6865 38.2815,19.0347 Q39.6014,17.3828 42.1082,17.3828 Q42.8138,17.3828 43.4612,17.5322 Q44.1087,17.6816 44.6731,17.9805 L44.6731,20.7031 Q44.0423,20.1221 43.4488,19.8523 Q42.8553,19.5825 42.2244,19.5825 Q40.8797,19.5825 40.1949,20.6492 Q39.5101,21.7158 39.5101,23.8159 Q39.5101,25.9077 40.1949,26.9744 Q40.8797,28.041 42.2244,28.041 Q42.8553,28.041 43.4488,27.7712 Q44.0423,27.5015 44.6731,26.9204 Z "/><text fill="#000000" font-family="sans-serif" font-size="12" lengthAdjust="spacingAndGlyphs" textLength="24" x="60.3" y="28.5352">人類</text><line style="stroke: #A80036; stroke-width: 1.5;" x1="7" x2="107" y1="40" y2="40"/><text fill="#000000" font-family="sans-serif" font-size="11" lengthAdjust="spacingAndGlyphs" textLength="90" x="12" y="54.6348">String 出生年月日</text><line style="stroke: #A80036; stroke-width: 1.5;" x1="7" x2="107" y1="60.9551" y2="60.9551"/></g></svg>